<svg xmlns="http://www.w3.org/2000/svg" version="1.1" xmlns:xlink="http://www.w3.org/1999/xlink" xmlns:svgjs="http://svgjs.dev/svgjs" width="1000" height="368" viewBox="0 0 1000 368"><g transform="matrix(1,0,0,1,-0.6060606060606233,-0.5775047610140405)"><svg viewBox="0 0 396 146" data-background-color="#ffffff" preserveAspectRatio="xMidYMid meet" height="368" width="1000" xmlns="http://www.w3.org/2000/svg" xmlns:xlink="http://www.w3.org/1999/xlink"><g id="tight-bounds" transform="matrix(1,0,0,1,0.2400000000000091,0.22911873670665273)"><svg viewBox="0 0 395.52 145.5417614198767" height="145.5417614198767" width="395.52"><g><svg viewBox="0 0 395.52 145.5417614198767" height="145.5417614198767" width="395.52"><g transform="matrix(1,0,0,1,0,106.77482658762659)"><svg viewBox="0 0 395.52 38.76693483225013" height="38.76693483225013" width="395.52"><g id="textblocktransform"><svg viewBox="0 0 395.52 38.76693483225013" height="38.76693483225013" width="395.52" id="textblock"><g><svg viewBox="0 0 395.52 38.76693483225013" height="38.76693483225013" width="395.52"><g transform="matrix(1,0,0,1,0,0)"><svg width="395.52" viewBox="4.369999885559082 -31.610000610351562 326.010009765625 32.06999969482422" height="38.76693483225013" data-palette-color="#ea3c12"><g class="undefined-text-0" data-fill-palette-color="primary" id="text-0"><path d="M4.37-1.9L4.37-29.43Q4.37-30.57 5.63-31.21L5.63-31.21Q5.98-31.38 6.38-31.38L6.38-31.38 15.75-31.38Q23.33-31.38 25.98-27.36L25.98-27.36Q26.9-25.69 26.9-23.13 26.9-20.57 25.23-18.79 23.56-17.01 20.46-16.38L20.46-16.38 20.46-16.21Q23.45-15.69 24.71-13.97L24.71-13.97Q25.69-12.53 25.95-10.11 26.21-7.7 26.38-6.32L26.38-6.32Q26.55-4.31 26.72-1.9L26.72-1.9Q26.72-0.92 26.12-0.46 25.52 0 24.77 0 24.02 0 23.45-0.43 22.87-0.86 22.76-1.72L22.76-1.72Q22.53-4.37 22.36-6.41 22.18-8.45 21.95-9.86 21.72-11.26 21.32-12.18 20.92-13.1 20.23-13.62L20.23-13.62Q19.08-14.48 15.69-14.6L15.69-14.6 8.28-14.6 8.28-1.9Q8.28-0.52 7.07-0.11L7.07-0.11Q6.72 0 6.18 0 5.63 0 5-0.46 4.37-0.92 4.37-1.9L4.37-1.9ZM8.28-17.59L14.02-17.59Q19.48-17.59 21.38-19.31L21.38-19.31Q22.76-20.52 22.87-22.93L22.87-22.93Q22.87-26.32 20.34-27.41L20.34-27.41Q18.97-28.1 17.59-28.19 16.21-28.28 15.4-28.28L15.4-28.28 8.28-28.28 8.28-17.59ZM49.19-27.93L59.77-2.41Q59.83-2.07 59.83-1.72 59.83-1.38 59.65-1.03 59.48-0.69 59.19-0.52L59.19-0.52Q58.62 0 57.93 0L57.93 0Q56.55 0 56.09-1.21L56.09-1.21 53.27-8.16 37.76-8.16 35-1.21Q34.6 0 33.39 0 32.18 0 31.55-1.03L31.55-1.03Q31.38-1.38 31.38-1.67 31.38-1.95 31.55-2.41L31.55-2.41 41.95-27.93Q43.1-30.8 44.6-31.21L44.6-31.21Q45-31.26 45.63-31.38L45.63-31.38Q46.78-31.38 47.35-30.86L47.35-30.86Q48.27-30.17 49.19-27.93L49.19-27.93ZM45.51-28.1L38.85-11.21 52.24-11.21 45.51-28.1ZM64.88-1.9L64.88-29.48Q64.88-30.34 65.45-30.86 66.03-31.38 66.83-31.38L66.83-31.38 82.24-31.38Q83.1-31.38 83.47-30.86 83.85-30.34 83.85-29.74 83.85-29.14 83.47-28.62 83.1-28.1 82.24-28.1L82.24-28.1 68.9-28.1 68.9-17.93 81.72-17.93Q82.58-17.93 82.98-17.41 83.39-16.9 83.39-16.29 83.39-15.69 82.93-15.2 82.47-14.71 81.72-14.71L81.72-14.71 68.9-14.71 68.9-1.9Q68.9-1.03 68.44-0.57L68.44-0.57Q66.95 0.52 65.57-0.46L65.57-0.46Q65-0.86 64.88-1.9L64.88-1.9ZM104.88-27.93L115.45-2.41Q115.51-2.07 115.51-1.72 115.51-1.38 115.34-1.03 115.16-0.69 114.88-0.52L114.88-0.52Q114.3 0 113.61 0L113.61 0Q112.23 0 111.77-1.21L111.77-1.21 108.96-8.16 93.44-8.16 90.68-1.21Q90.28 0 89.07 0 87.87 0 87.23-1.03L87.23-1.03Q87.06-1.38 87.06-1.67 87.06-1.95 87.23-2.41L87.23-2.41 97.64-27.93Q98.79-30.8 100.28-31.21L100.28-31.21Q100.68-31.26 101.31-31.38L101.31-31.38Q102.46-31.38 103.04-30.86L103.04-30.86Q103.96-30.17 104.88-27.93L104.88-27.93ZM101.2-28.1L94.53-11.21 107.92-11.21 101.2-28.1ZM139.76 0L122.86 0Q122.17 0 121.71-0.46L121.71-0.46Q120.91-1.15 120.91-1.9L120.91-1.9 120.91-29.43Q120.91-30.52 122.06-31.15L122.06-31.15Q122.4-31.26 122.75-31.38L122.75-31.38 139.13-31.38Q139.99-31.38 140.39-30.86 140.79-30.34 140.79-29.74 140.79-29.14 140.33-28.62 139.88-28.1 139.13-28.1L139.13-28.1 124.7-28.1 124.7-17.7 138.44-17.7Q139.3-17.7 139.7-17.21 140.1-16.72 140.1-16.09L140.1-16.09Q140.1-15.52 139.65-15.06 139.19-14.6 138.44-14.6L138.44-14.6 124.7-14.6 124.7-3.22 139.76-3.22Q140.56-3.22 140.97-2.7 141.37-2.18 141.37-1.55 141.37-0.92 140.94-0.46 140.51 0 139.76 0L139.76 0ZM166.42 0L150.33 0Q149.01 0 148.49-1.15L148.49-1.15Q148.32-1.49 148.32-1.9L148.32-1.9 148.32-29.48Q148.32-30.8 149.53-31.21L149.53-31.21Q149.87-31.26 150.45-31.32 151.02-31.38 151.6-30.92 152.17-30.46 152.17-29.48L152.17-29.48 152.17-3.22 166.42-3.22Q167.29-3.22 167.66-2.73 168.03-2.24 168.03-1.64 168.03-1.03 167.63-0.52 167.23 0 166.42 0L166.42 0Z" fill="#ffffff" data-fill-palette-color="primary"></path><path d="M177.48-6.21Q178.83-4.48 181.02-3.56 183.2-2.64 186.54-2.64 189.87-2.64 193.2-3.68L193.2-3.68 193.2-13.22 187-13.22Q186.31-13.22 185.9-13.68 185.5-14.14 185.5-14.66L185.5-14.66Q185.5-15.29 185.85-15.69 186.19-16.09 187-16.09L187-16.09 195.44-16.09Q197.11-16.09 197.11-14.48L197.11-14.48 197.11-2.99Q197.11-1.38 195.62-1.15L195.62-1.15Q190.33 0.46 186.48 0.46 182.63 0.46 179.75-0.52 176.88-1.49 174.93-3.45L174.93-3.45Q170.67-7.7 170.67-15.63L170.67-15.63Q170.67-22.24 174.58-26.72L174.58-26.72Q178.6-31.55 186.19-31.61L186.19-31.61Q191.13-31.61 195.04-30L195.04-30Q195.85-29.54 195.85-28.82 195.85-28.1 195.47-27.59 195.1-27.07 194.47-27.07L194.47-27.07 194.24-27.07Q194.12-27.07 193.6-27.21 193.09-27.36 192.11-27.56 191.13-27.76 190.1-27.93L190.1-27.93Q187.8-28.28 186.42-28.28L186.42-28.28Q180.56-28.28 177.51-24.37L177.51-24.37Q176.13-22.59 175.53-20.2 174.93-17.82 174.93-15.29 174.93-12.76 175.53-10.34 176.13-7.93 177.48-6.21ZM208.46-20.2Q207.91-17.82 207.91-15.55 207.91-13.28 208.46-10.86 209-8.45 210.33-6.64 211.65-4.83 213.6-3.74 215.56-2.64 218.37-2.64 221.19-2.64 223.2-3.74 225.21-4.83 226.48-6.64 227.74-8.45 228.34-10.86 228.95-13.28 228.95-15.55 228.95-17.82 228.34-20.2 227.74-22.59 226.48-24.4 225.21-26.21 223.2-27.3 221.19-28.39 218.37-28.39 215.56-28.39 213.6-27.3 211.65-26.21 210.33-24.4 209-22.59 208.46-20.2ZM203.6-15.63L203.6-15.63Q203.6-18.97 204.58-21.95 205.56-24.94 207.51-27.07L207.51-27.07Q211.42-31.55 218.31-31.61L218.31-31.61Q225.33-31.61 229.29-27.07L229.29-27.07Q231.19-24.94 232.14-21.95 233.08-18.97 233.08-15.63L233.08-15.63Q233.08-12.24 232.14-9.17 231.19-6.09 229.29-4.02L229.29-4.02Q225.33 0.46 218.31 0.46L218.31 0.46Q211.36 0.46 207.51-4.02L207.51-4.02Q205.56-6.21 204.58-9.22 203.6-12.24 203.6-15.63ZM257.34-5.06L257.39-5.06 267.8-28.05Q268.71-30 269.17-30.52L269.17-30.52Q270.15-31.38 271.16-31.38 272.16-31.38 272.71-31.15 273.25-30.92 273.66-30.52L273.66-30.52Q274.63-29.54 274.63-27.93L274.63-27.93 274.63-1.72Q274.63-0.86 274.09-0.43 273.54 0 272.85 0 272.16 0 271.65-0.43 271.13-0.86 271.13-1.72L271.13-1.72 271.13-27.47 259.75-2.41Q259.06-0.69 257.34-0.69L257.34-0.69Q255.84-0.69 254.98-2.41L254.98-2.41 243.66-27.36 243.66-1.72Q243.66-0.86 243.11-0.43 242.57 0 241.88 0 241.19 0 240.64-0.43 240.09-0.86 240.09-1.72L240.09-1.72 240.09-27.93Q240.09-30.46 241.93-31.15L241.93-31.15Q242.57-31.26 243.23-31.32 243.89-31.38 244.43-31.21 244.98-31.03 245.38-30.69L245.38-30.69Q246.07-30.11 247.11-28.05L247.11-28.05 257.34-5.06ZM301.99 0L285.09 0Q284.4 0 283.94-0.46L283.94-0.46Q283.14-1.15 283.14-1.9L283.14-1.9 283.14-29.43Q283.14-30.52 284.29-31.15L284.29-31.15Q284.63-31.26 284.98-31.38L284.98-31.38 301.36-31.38Q302.22-31.38 302.62-30.86 303.02-30.34 303.02-29.74 303.02-29.14 302.56-28.62 302.1-28.1 301.36-28.1L301.36-28.1 286.93-28.1 286.93-17.7 300.67-17.7Q301.53-17.7 301.93-17.21 302.33-16.72 302.33-16.09L302.33-16.09Q302.33-15.52 301.87-15.06 301.41-14.6 300.67-14.6L300.67-14.6 286.93-14.6 286.93-3.22 301.99-3.22Q302.79-3.22 303.19-2.7 303.6-2.18 303.6-1.55 303.6-0.92 303.17-0.46 302.74 0 301.99 0L301.99 0ZM328.54 0L310.2 0Q309.11 0 308.48-0.46L308.48-0.46Q307.79-1.15 307.79-1.9 307.79-2.64 308.19-3.33L308.19-3.33 325.43-28.1 309.57-28.1Q308.82-28.1 308.39-28.62 307.96-29.14 307.96-29.74 307.96-30.34 308.36-30.86 308.77-31.38 309.57-31.38L309.57-31.38 328.31-31.38Q329.23-31.38 329.8-30.86 330.38-30.34 330.38-29.77L330.38-29.77Q330.38-28.74 329.86-28.05L329.86-28.05 312.56-3.22 328.54-3.22Q329.46-3.22 329.8-2.7 330.15-2.18 330.15-1.55 330.15-0.92 329.74-0.46 329.34 0 328.54 0L328.54 0Z" fill="#ffffff" data-fill-palette-color="secondary"></path></g></svg></g></svg></g></svg></g></svg></g><g transform="matrix(1,0,0,1,153.52452961364497,0)"><svg viewBox="0 0 88.47094077271002 88.47094077271002" height="88.47094077271002" width="88.47094077271002"><g><svg></svg></g><g id="icon-0"><svg viewBox="0 0 88.47094077271002 88.47094077271002" height="88.47094077271002" width="88.47094077271002"><g><path d="M0 44.235c0-24.431 19.805-44.235 44.235-44.235 24.431 0 44.235 19.805 44.236 44.235 0 24.431-19.805 44.235-44.236 44.236-24.431 0-44.235-19.805-44.235-44.236zM44.235 84.975c22.5 0 40.739-18.24 40.74-40.74 0-22.5-18.24-40.739-40.74-40.739-22.5 0-40.739 18.24-40.739 40.739 0 22.5 18.24 40.739 40.739 40.74z" data-fill-palette-color="accent" fill="#ffffff" stroke="transparent"></path></g><g transform="matrix(1,0,0,1,26.79099894738595,24.07029805704141)"><svg viewBox="0 0 34.88894287793812 40.330344658627205" height="40.330344658627205" width="34.88894287793812"><g><svg xmlns="http://www.w3.org/2000/svg" xmlns:xlink="http://www.w3.org/1999/xlink" version="1.1" x="0" y="0" viewBox="17.299999237060547 12.199999809265137 65.39999389648438 75.60000610351562" style="enable-background:new 0 0 100 100;" xml:space="preserve" height="40.330344658627205" width="34.88894287793812" class="icon-s-0" data-fill-palette-color="accent" id="s-0"><path d="M50 12.2L17.3 31.1v37.8L50 87.8l32.7-18.9V31.1L50 12.2zM32.1 37.4L50 16l17 21.4H32.1zM67.3 39.4L50 70.4l-18.2-31H67.3zM48.1 71l-27.7-4.5 9.8-25.9L48.1 71zM68.9 40.7l10.7 25.9-27.7 4.5L68.9 40.7zM69.2 37.1L52.6 16l27 15.6L69.2 37.1zM29.8 37.1l-9.4-5.5 26.8-15.5L29.8 37.1zM28.8 38.8l-9.5 25V33.3L28.8 38.8zM49 73.2v11.7L20.9 68.7 49 73.2zM51 73.2l28.1-4.5L51 84.9V73.2zM70.3 38.8l10.5-5.6v30.9L70.3 38.8z" fill="#ffffff" data-fill-palette-color="accent"></path></svg></g></svg></g></svg></g></svg></g><g></g></svg></g><defs></defs></svg><rect width="395.52" height="145.5417614198767" fill="none" stroke="none" visibility="hidden"></rect></g></svg></g></svg>